<?xml version="1.0" encoding="UTF-8"?>
<svg version="1.1" xmlns="http://www.w3.org/2000/svg" viewBox="0 0 54 44" width="24" height="24">
<path d="M0 0 C0.19315149 5.37612327 -0.47422049 10.04883707 -1.71484375 15.26953125 C-1.97763878 16.41285164 -1.97763878 16.41285164 -2.2457428 17.57926941 C-2.6146017 19.17761699 -2.98708765 20.7751315 -3.36303711 22.37182617 C-3.93949226 24.82096434 -4.50485301 27.27246282 -5.06835938 29.72460938 C-5.42904952 31.28139795 -5.79035576 32.83804394 -6.15234375 34.39453125 C-6.3221727 35.12783157 -6.49200165 35.8611319 -6.66697693 36.61665344 C-7.88277737 41.76555474 -7.88277737 41.76555474 -9 44 C-14.02693031 44.41276847 -16.37850901 43.52437156 -20.375 40.5 C-21.24898437 39.8503125 -22.12296875 39.200625 -23.0234375 38.53125 C-23.67570312 38.0259375 -24.32796875 37.520625 -25 37 C-25.45890625 37.44472656 -25.9178125 37.88945313 -26.390625 38.34765625 C-27.00421875 38.91355469 -27.6178125 39.47945312 -28.25 40.0625 C-28.85328125 40.63097656 -29.4565625 41.19945312 -30.078125 41.78515625 C-32 43 -32 43 -34.11328125 43.10546875 C-36 42 -36 42 -37.02734375 39.015625 C-37.32769531 37.77296875 -37.62804687 36.5303125 -37.9375 35.25 C-39.16568735 30.96025202 -40.30233849 28.44304052 -44.2109375 25.9609375 C-47.45696224 24.7568806 -50.62419379 23.76116275 -54 23 C-54.0234375 20.73046875 -54.0234375 20.73046875 -53 18 C-50.17294138 16.48617593 -47.6210709 15.38379794 -44.625 14.3125 C-43.75536621 13.98507812 -42.88573242 13.65765625 -41.98974609 13.3203125 C-40.06275472 12.59773271 -38.13235559 11.88419665 -36.19921875 11.17822266 C-32.74448494 9.90589776 -29.3098427 8.58675831 -25.875 7.26171875 C-23.45880827 6.33989999 -21.0421459 5.41931385 -18.625 4.5 C-17.46693848 4.05438721 -16.30887695 3.60877441 -15.11572266 3.1496582 C-14.0179248 2.7393335 -12.92012695 2.32900879 -11.7890625 1.90625 C-10.81662598 1.53822266 -9.84418945 1.17019531 -8.84228516 0.79101562 C-5.77486007 -0.06265705 -3.16860165 -0.14309436 0 0 Z " fill="#FEFEFE" transform="translate(54,0)"/>
<path d="M0 0 C0 3 0 3 -1.8359375 4.9453125 C-2.67382812 5.66460938 -3.51171875 6.38390625 -4.375 7.125 C-5.27734375 7.91003906 -6.1796875 8.69507813 -7.109375 9.50390625 C-8.06328125 10.32761719 -9.0171875 11.15132812 -10 12 C-11.87878258 13.68328764 -13.75399238 15.37057454 -15.625 17.0625 C-17.8125 19.03125 -17.8125 19.03125 -20 21 C-17.28395285 23.87420123 -17.28395285 23.87420123 -14 26 C-14.47246642 30.25219775 -16.77272377 32.37314725 -20 35 C-21.99609375 35.109375 -21.99609375 35.109375 -24 34 C-25.12666239 31.43536061 -25.97668335 29.10519928 -26.75 26.4375 C-27.08064453 25.37112305 -27.08064453 25.37112305 -27.41796875 24.28320312 C-27.96025164 22.5266781 -28.48209014 20.76386515 -29 19 C-19.40010845 12.55973662 -9.7460095 6.21702301 0 0 Z " fill="#C4DAEC" transform="translate(42,8)"/>
<path d="M0 0 C5 2 5 2 8 4 C7.52794881 8.24846075 5.11122478 10.26819288 2 13 C1.34 13 0.68 13 0 13 C0 8.71 0 4.42 0 0 Z " fill="#A2C6E3" transform="translate(20,30)"/>
</svg>
