<svg width="98" height="31" viewBox="0 0 98 31" fill="none" xmlns="http://www.w3.org/2000/svg">
<path d="M19.1036 0.96883C19.0909 0.965039 19.077 0.961247 19.0632 0.95872C17.8725 0.663017 16.6807 0.521484 15.5077 0.521484H15.5027C8.89178 0.524012 2.88061 5.01136 1.21779 11.7215C-0.740479 19.6259 4.07376 27.6238 11.9712 29.5838C13.1618 29.8795 14.355 30.021 15.5292 30.021C22.1413 30.021 28.155 25.5336 29.8179 18.8209C31.7723 10.9317 26.9808 2.94776 19.1036 0.96883ZM28.6613 18.5341C27.1588 24.5947 21.7588 28.8281 15.5292 28.8281C14.4333 28.8281 13.3323 28.6929 12.2578 28.4262C8.74658 27.5555 5.78582 25.3681 3.91846 22.267C2.0511 19.1659 1.50313 15.5227 2.37432 12.0084C3.87553 5.94902 9.28192 1.71693 15.5102 1.7144C16.6049 1.7144 17.7034 1.84962 18.7867 2.11878L18.8005 2.12258L18.8144 2.12637C26.0364 3.93976 30.4529 11.3007 28.6613 18.5341Z" fill="white"/>
<path d="M18.5886 13.2957C18.1657 14.9903 15.5849 14.1209 14.7466 13.9136L15.4865 10.949C16.3109 11.1525 19.0116 11.5417 18.5747 13.2944H18.5886V13.2957ZM18.1278 18.0863C17.6707 19.9326 14.5648 18.933 13.5585 18.6828L14.3754 15.4098C15.3817 15.6638 18.6063 16.1592 18.1278 18.0863ZM21.5128 13.3222C21.7792 11.5177 20.408 10.5484 18.5507 9.90523L19.1606 7.46126L17.6581 7.08847L17.0659 9.46799C16.6771 9.37069 16.2743 9.27717 15.8766 9.18872L16.4687 6.78392L14.9839 6.41113L14.3741 8.8551L13.4259 8.64407L11.3742 8.13101L10.9803 9.71947C10.9803 9.71947 12.0055 9.96968 12.0598 9.98989C12.3919 10.0569 12.7858 10.4145 12.7542 10.8366L11.0863 17.5278C10.9954 17.8134 10.6912 17.9701 10.4058 17.8791C10.3742 17.8702 9.32251 17.6125 9.32251 17.6125L8.58643 19.3071L10.5194 19.786L11.5775 20.0615L10.9639 22.5307L12.4487 22.9035L13.0585 20.4595C13.4587 20.5695 13.8527 20.6706 14.239 20.7641L13.638 23.2156L15.1228 23.5834L15.7364 21.1192C18.2755 21.5981 20.1744 21.4073 20.9787 19.1125C21.6264 17.2662 20.9446 16.2034 19.6126 15.5084C20.586 15.2835 21.3057 14.6605 21.5128 13.3222Z" fill="white"/>
<path d="M43.3831 10.791C44.3048 10.791 45.1014 10.954 45.7731 11.2813C46.4448 11.6086 47.0016 12.0496 47.4435 12.6069C47.8854 13.1642 48.2112 13.8175 48.4233 14.5669C48.6342 15.3163 48.7402 16.1237 48.7402 16.9881C48.7402 18.3137 48.4953 19.5686 48.0054 20.7501C47.5155 21.9317 46.8489 22.9603 46.0042 23.8348C45.1595 24.7092 44.1608 25.4017 43.0081 25.9097C41.8566 26.419 40.6079 26.6743 39.2632 26.6743C39.0903 26.6743 38.7885 26.6692 38.3555 26.6604C37.9236 26.6503 37.4287 26.6073 36.8719 26.5302C36.3151 26.4531 35.7242 26.3381 35.1005 26.184C34.4768 26.0311 33.8859 25.8188 33.3291 25.5496L38.3113 4.5926L42.7758 3.90137L40.9892 11.3394C41.373 11.1663 41.7569 11.0324 42.1419 10.9363C42.5283 10.8403 42.9412 10.791 43.3831 10.791ZM39.6395 23.1296C40.3112 23.1296 40.945 22.9666 41.5409 22.6393C42.1356 22.3133 42.6495 21.8761 43.0813 21.3276C43.5131 20.7804 43.854 20.16 44.104 19.4687C44.354 18.7762 44.479 18.0559 44.479 17.3066C44.479 16.3841 44.325 15.6638 44.0181 15.1444C43.7113 14.6263 43.1444 14.366 42.3187 14.366C42.0498 14.366 41.7 14.414 41.267 14.51C40.8352 14.6061 40.4463 14.8082 40.1003 15.1153L38.1989 23.0146C38.3138 23.0336 38.4148 23.0525 38.5006 23.0728C38.5865 23.0917 38.6774 23.1069 38.7746 23.1157C38.8706 23.1258 38.9855 23.1296 39.1206 23.1296C39.2544 23.1296 39.4274 23.1296 39.6395 23.1296Z" fill="white"/>
<path d="M55.5946 26.5593C54.231 26.5593 53.1604 26.3811 52.3839 26.026C51.6061 25.6709 51.0493 25.1856 50.7135 24.5702C50.3776 23.9548 50.2135 23.2497 50.2236 22.451C50.2337 21.6536 50.3435 20.8032 50.5544 19.8996L54.2121 4.5926L58.6766 3.90137L54.6729 20.505C54.5959 20.8512 54.553 21.1684 54.5429 21.4565C54.5328 21.7446 54.5858 21.9999 54.702 22.2198C54.8169 22.4409 55.0138 22.6191 55.2929 22.753C55.5706 22.887 55.9595 22.9742 56.4595 23.0121L55.5946 26.5593Z" fill="white"/>
<path d="M62.0755 26.2714H57.813L61.4126 11.1084H65.7041L62.0755 26.2714Z" fill="white"/>
<path d="M68.8719 11.8012C69.1977 11.7051 69.5588 11.5952 69.9514 11.4701C70.3454 11.345 70.7873 11.23 71.2759 11.1238C71.7658 11.0189 72.3125 10.9317 72.9185 10.8648C73.5233 10.7978 74.2101 10.7637 74.9778 10.7637C77.2429 10.7637 78.7984 11.417 79.6443 12.7236C80.489 14.0303 80.6329 15.8184 80.0761 18.0855L78.1178 26.2729H73.8263L75.7278 18.2586C75.8427 17.7594 75.9336 17.2742 76.0018 16.8028C76.0687 16.3315 76.0636 15.9183 75.9879 15.5632C75.9108 15.2081 75.7328 14.9199 75.4551 14.6988C75.176 14.4776 74.7493 14.3677 74.1735 14.3677C73.6167 14.3677 73.0498 14.4258 72.4741 14.5408L69.68 26.2729H65.3872L68.8719 11.8012Z" fill="white"/>
<path d="M87.1607 16.5864C88.3122 15.6639 89.3967 14.7224 90.4156 13.7608C91.4333 12.8004 92.307 11.9158 93.0368 11.1083H97.875C96.7993 12.2999 95.6806 13.4676 94.519 14.6112C93.3575 15.7549 92.028 16.9705 90.5293 18.2582C90.932 18.7586 91.3398 19.3349 91.754 19.9882C92.1668 20.6415 92.5608 21.3239 92.9345 22.0354C93.3095 22.7468 93.6542 23.4671 93.9711 24.1976C94.288 24.928 94.5519 25.6205 94.7627 26.2738H89.9813C89.8083 25.7746 89.5924 25.2262 89.3336 24.631C89.0748 24.0358 88.7869 23.4444 88.47 22.858C88.1531 22.2717 87.8223 21.7005 87.4763 21.1432C87.1304 20.5859 86.7857 20.0868 86.4398 19.6445L84.8274 26.2751H80.5649L85.7491 4.59651L90.2136 3.90527L87.1607 16.5864Z" fill="white"/>
<path d="M67.2151 6.52982C67.2151 6.92914 67.1394 7.30067 66.9866 7.64692C66.8351 7.99317 66.6268 8.29519 66.3654 8.55172C66.1028 8.80825 65.796 9.01296 65.445 9.16587C65.094 9.31751 64.719 9.3946 64.3213 9.3946C63.9223 9.3946 63.5486 9.31878 63.1976 9.16587C62.8466 9.01423 62.5423 8.80951 62.286 8.55172C62.0297 8.29519 61.8251 7.99317 61.6724 7.64692C61.5209 7.30067 61.4438 6.92914 61.4438 6.52982C61.4438 6.14187 61.5196 5.77161 61.6724 5.4203C61.8239 5.069 62.0284 4.76445 62.286 4.50792C62.5423 4.25139 62.8466 4.04667 63.1976 3.89377C63.5486 3.74212 63.9236 3.66504 64.3213 3.66504C64.719 3.66504 65.094 3.74086 65.445 3.89377C65.796 4.04667 66.1028 4.25013 66.3654 4.50792C66.6268 4.76445 66.8338 5.069 66.9866 5.4203C67.1394 5.77161 67.2151 6.1406 67.2151 6.52982Z" fill="white"/>
</svg>
