<svg width="70" height="38" viewBox="0 0 70 38" fill="none" xmlns="http://www.w3.org/2000/svg">
<g clip-path="url(#clip0_2306_7745)">
<path d="M27.0805 0.780703L18.1024 22.2002H12.2443L7.82833 5.10523C7.55817 4.05305 7.32661 3.66711 6.51005 3.2243C5.17958 2.50117 2.97973 1.82273 1.04395 1.40227L1.17598 0.780703H10.605C11.8075 0.780703 12.8882 1.57898 13.1604 2.9643L15.4943 15.361L21.2569 0.780703H27.0805ZM50.0336 15.2087C50.056 9.5557 42.2133 9.24289 42.2702 6.71805C42.2844 5.9482 43.0197 5.13164 44.6183 4.92242C45.4146 4.81883 47.6002 4.73758 50.0844 5.88117L51.0553 1.3393C49.7228 0.853828 48.0065 0.388672 45.8716 0.388672C40.3954 0.388672 36.54 3.30148 36.5075 7.47164C36.473 10.553 39.2599 12.2735 41.3602 13.3013C43.5194 14.3495 44.2425 15.0238 44.2344 15.9623C44.2202 17.4004 42.5119 18.0321 40.9194 18.0585C38.1326 18.1032 36.5157 17.307 35.2258 16.7057L34.2224 21.3999C35.5163 21.9951 37.9051 22.511 40.3872 22.5374C46.2047 22.5374 50.0133 19.6591 50.0336 15.2087ZM64.4961 22.2023H69.621L65.1482 0.780703H60.4154C59.353 0.780703 58.4552 1.40023 58.0571 2.35289L49.7452 22.2023H55.5607L56.7164 19.0051H63.8258L64.4961 22.2023ZM58.313 14.6115L61.2299 6.5657L62.9077 14.6115H58.313ZM34.9983 0.780703L30.4158 22.2002H24.8746L29.4571 0.780703H34.9983Z" fill="white"/>
<path d="M30.9541 34.9137V28.0928H33.2068C33.936 28.0928 34.5169 28.2675 34.9475 28.6128C35.3782 28.9601 35.5935 29.4821 35.5935 30.1829C35.5935 30.8898 35.3782 31.4139 34.9475 31.7571C34.5169 32.1004 33.936 32.2751 33.2068 32.2751H31.8336V34.9137H30.9541ZM33.0808 28.8017H31.8336V31.5926H33.0808C33.5947 31.5926 33.9908 31.487 34.265 31.2737C34.5413 31.0625 34.6774 30.7009 34.6774 30.1931C34.6774 29.6893 34.5393 29.3339 34.265 29.1206C33.9908 28.9073 33.5947 28.8017 33.0808 28.8017Z" fill="white"/>
<path d="M37.5859 27.8223V34.9113H36.7876V27.8223H37.5859Z" fill="white"/>
<path d="M39.093 30.965L39.1824 30.1829C39.3733 30.0509 39.613 29.9412 39.8994 29.8518C40.1858 29.7625 40.5007 29.7178 40.8419 29.7178C41.4939 29.7178 41.9794 29.8457 42.2963 30.1037C42.6131 30.3596 42.7716 30.7862 42.7716 31.3773V34.9137H42.0078V33.9448H41.9713C41.8392 34.3226 41.6361 34.5989 41.3619 34.7756C41.0856 34.9523 40.7424 35.0396 40.33 35.0396C40.0497 35.0396 39.7897 34.9868 39.5541 34.8832C39.3185 34.7776 39.1275 34.6212 38.9853 34.4079C38.8411 34.1946 38.77 33.9245 38.77 33.5954C38.77 33.2684 38.8391 33.0023 38.9772 32.8012C39.1133 32.6001 39.3063 32.4478 39.5561 32.3401C39.806 32.2325 40.1025 32.1492 40.4499 32.0882C40.8744 32.0171 41.2116 31.9501 41.4594 31.8912C41.7072 31.8323 41.886 31.7511 41.9936 31.6495V31.4159C41.9936 31.0462 41.9083 30.7761 41.7377 30.6075C41.567 30.4409 41.2481 30.3576 40.781 30.3576C40.4824 30.3576 40.1878 30.4084 39.8974 30.51C39.6069 30.6115 39.3449 30.7639 39.1133 30.967H39.093V30.965ZM41.9814 33.2075V32.1573C41.886 32.2406 41.7174 32.3157 41.4736 32.3767C41.2299 32.4376 40.9313 32.5046 40.5717 32.5696C40.267 32.6164 40.0213 32.7078 39.8324 32.8398C39.6435 32.9718 39.55 33.2054 39.55 33.5406C39.55 33.8453 39.6374 34.0707 39.8141 34.217C39.9908 34.3653 40.2345 34.4364 40.5453 34.4364C40.8439 34.4364 41.1019 34.3734 41.3172 34.2495C41.5325 34.1236 41.697 33.9671 41.8108 33.7782C41.9245 33.5893 41.9814 33.3984 41.9814 33.2075Z" fill="white"/>
<path d="M45.3473 33.5484C45.3473 33.8734 45.4164 34.0887 45.5545 34.1984C45.6906 34.3101 45.8714 34.365 46.0928 34.365C46.2959 34.365 46.4726 34.3467 46.623 34.3101C46.7712 34.2736 46.8951 34.2329 46.9906 34.1842H47.017L46.9459 34.8586C46.8565 34.9053 46.7205 34.9479 46.5417 34.9845C46.363 35.0211 46.1802 35.0393 45.9933 35.0393C45.5444 35.0393 45.1909 34.9337 44.935 34.7204C44.677 34.5071 44.5491 34.1598 44.5491 33.6743V30.5076H43.6167L43.7244 29.9775L44.5491 29.8596V28.775L45.3473 28.6592V29.8434H46.8992L46.7997 30.5076H45.3453V33.5484H45.3473Z" fill="white"/>
<path d="M47.8418 28.6045C47.8418 28.4725 47.8885 28.3648 47.9799 28.2775C48.0733 28.1901 48.1912 28.1475 48.3354 28.1475C48.4796 28.1475 48.5974 28.1921 48.6949 28.2775C48.7904 28.3648 48.8391 28.4745 48.8391 28.6045C48.8391 28.7426 48.7924 28.8543 48.6949 28.9417C48.5994 29.029 48.4796 29.0717 48.3354 29.0717C48.1912 29.0717 48.0733 29.027 47.9799 28.9417C47.8885 28.8543 47.8418 28.7426 47.8418 28.6045ZM48.7396 29.8415V34.9115H47.9413V29.8415H48.7396Z" fill="white"/>
<path d="M52.8588 29.7178C53.4092 29.7178 53.8399 29.8579 54.1506 30.1403C54.4614 30.4206 54.6178 30.8614 54.6178 31.4586V34.9137H53.8277V31.684C53.8277 31.2575 53.7363 30.9406 53.5535 30.7273C53.3707 30.5161 53.0396 30.4084 52.5622 30.4084C52.2819 30.4084 52.026 30.4653 51.7944 30.579C51.5649 30.6928 51.3821 30.8553 51.248 31.0645C51.1139 31.2737 51.0449 31.5215 51.0449 31.81V34.9137H50.2466V29.8437H51.0103V30.9203H51.055C51.1505 30.6339 51.2967 30.4023 51.4897 30.2256C51.6847 30.0489 51.902 29.9209 52.1438 29.8396C52.3875 29.7584 52.6252 29.7178 52.8588 29.7178Z" fill="white"/>
<path d="M58.1162 34.3462C58.3924 34.3462 58.6443 34.2893 58.8738 34.1756C59.1034 34.0639 59.2882 33.8993 59.4263 33.6901C59.5624 33.4809 59.6315 33.2351 59.6315 32.9548V29.8409H60.4298V34.9109H59.668V33.8425H59.6315C59.5299 34.1289 59.3837 34.3625 59.1927 34.5392C59.0018 34.7159 58.7865 34.8418 58.5468 34.919C58.3071 34.9962 58.0715 35.0348 57.8379 35.0348C57.2874 35.0348 56.8548 34.8926 56.5359 34.6042C56.219 34.3178 56.0605 33.875 56.0605 33.2757V29.8389H56.8588V33.097C56.8588 33.5276 56.9482 33.8425 57.129 34.0436C57.3098 34.2467 57.6388 34.3462 58.1162 34.3462Z" fill="white"/>
<path d="M66.1134 30.9386H66.15C66.2454 30.644 66.3897 30.4104 66.5806 30.2337C66.7715 30.057 66.9848 29.927 67.2225 29.8437C67.4581 29.7604 67.6937 29.7178 67.9273 29.7178C68.4717 29.7178 68.8901 29.864 69.1826 30.1565C69.4751 30.449 69.6214 30.8918 69.6214 31.485V34.9137H68.8231V31.6475C68.8231 31.2168 68.7439 30.902 68.5854 30.705C68.427 30.5079 68.1081 30.4104 67.6287 30.4104C67.2164 30.4104 66.8711 30.5282 66.5928 30.7639C66.3145 30.9995 66.1743 31.3428 66.1743 31.7917V34.9137H65.3761V31.6475C65.3761 31.2168 65.2948 30.902 65.1323 30.705C64.9698 30.5079 64.6509 30.4104 64.1736 30.4104C63.9034 30.4104 63.6576 30.4653 63.4383 30.575C63.2169 30.6867 63.0421 30.8471 62.9121 31.0564C62.7842 31.2656 62.7192 31.5114 62.7192 31.7917V34.9137H61.9209V29.8437H62.6847V30.9386H62.7294C62.8248 30.644 62.965 30.4104 63.1518 30.2337C63.3367 30.057 63.5459 29.927 63.7754 29.8437C64.005 29.7604 64.2365 29.7178 64.4701 29.7178C64.9251 29.7178 65.2908 29.8173 65.569 30.0184C65.8494 30.2175 66.0301 30.5242 66.1134 30.9386Z" fill="white"/>
</g>
<defs>
<clipPath id="clip0_2306_7745">
<rect width="68.6562" height="37.375" fill="white" transform="translate(0.96875 0.375)"/>
</clipPath>
</defs>
</svg>
