<svg width="56" height="23" viewBox="0 0 56 23" fill="none" xmlns="http://www.w3.org/2000/svg">
<path d="M11.2479 4.82715C11.7532 4.82715 13.5613 4.87207 14.7405 6.59033C14.6395 6.66895 12.8426 7.67969 12.8426 9.94824C12.8426 12.5762 15.1336 13.5083 15.201 13.5308C15.1898 13.5869 14.8304 14.7998 13.9993 16.0464C13.2469 17.1245 12.4495 18.2139 11.2479 18.2139C10.0462 18.2139 9.73174 17.5176 8.36163 17.5176C7.00274 17.5176 6.51983 18.2363 5.43047 18.2363C4.32989 18.2363 3.55499 17.2256 2.69024 16.0015C1.66827 14.5303 0.837212 12.2729 0.837212 10.1279C0.837212 6.70264 3.07207 4.87207 5.27325 4.87207C6.42999 4.87207 7.40704 5.63574 8.13702 5.63574C8.83331 5.63574 9.91143 4.82715 11.2479 4.82715ZM10.6302 3.37842C10.035 4.09717 9.02422 4.63623 8.22686 4.63623C8.13702 4.63623 8.04717 4.625 7.99102 4.61377C7.97979 4.56885 7.95733 4.42285 7.95733 4.28809C7.95733 3.37842 8.42901 2.46875 8.92315 1.896C9.56329 1.14355 10.6414 0.593262 11.5174 0.55957C11.5398 0.660645 11.5511 0.78418 11.5511 0.907715C11.5511 1.81738 11.1692 2.71582 10.6302 3.37842ZM19.6155 1.82861H26.1516C29.386 1.82861 31.5984 4.04102 31.5984 7.30908C31.5984 10.521 29.3074 12.7222 26.0281 12.7222H22.513V18.0342H19.6155V1.82861ZM22.513 4.25439V10.3188H25.3767C27.4431 10.3188 28.656 9.24072 28.656 7.30908C28.656 5.32129 27.4768 4.25439 25.388 4.25439H22.513ZM37.0349 16.0464C38.7195 16.0464 39.9773 14.957 39.9773 13.5308V12.5537L37.2033 12.7334C35.6423 12.8345 34.9123 13.396 34.9123 14.3955C34.9123 15.4287 35.7995 16.0464 37.0349 16.0464ZM36.2151 18.2363C33.8454 18.2363 32.1496 16.7988 32.1496 14.5527C32.1496 12.3291 33.823 11.0488 36.8103 10.8691L39.9773 10.6782V9.64502C39.9773 8.44336 39.1687 7.76953 37.6638 7.76953C36.3835 7.76953 35.5075 8.21875 35.2492 9.0498H32.6213C32.8459 6.88232 34.8786 5.50098 37.7986 5.50098C40.9543 5.50098 42.7287 7.03955 42.7287 9.64502V18.0342H40.0447V16.3496H39.8537C39.1687 17.54 37.821 18.2363 36.2151 18.2363ZM45.8293 22.4927C45.6608 22.4927 44.9084 22.4814 44.7287 22.4478V20.168C44.8859 20.2017 45.3015 20.2129 45.4924 20.2129C46.6716 20.2129 47.3342 19.7637 47.6935 18.6294L47.8395 18.0903L43.4484 5.74805H46.5031L49.3781 15.3389H49.569L52.4328 5.74805H55.3752L50.9392 18.4272C49.8947 21.4819 48.5808 22.4927 45.8293 22.4927Z" fill="black"/>
</svg>
