<svg width="39" height="31" viewBox="0 0 39 31" fill="none" xmlns="http://www.w3.org/2000/svg">
<path fill-rule="evenodd" clip-rule="evenodd" d="M1.68687 5.34312C2.48683 4.54316 3.57181 4.09375 4.70312 4.09375H22.375C23.0481 4.09375 23.5938 4.6394 23.5938 5.3125C23.5938 5.9856 23.0481 6.53125 22.375 6.53125H4.70312C4.21828 6.53125 3.75329 6.72386 3.41045 7.0667C3.06761 7.40954 2.875 7.87453 2.875 8.35938V26.6406C2.875 27.1255 3.06761 27.5905 3.41045 27.9333C3.75329 28.2761 4.21828 28.4688 4.70312 28.4688H30.2001C30.685 28.4688 31.15 28.2761 31.4928 27.9333C31.8357 27.5905 32.0283 27.1255 32.0283 26.6406V16.2051C32.0283 15.532 32.5739 14.9863 33.247 14.9863C33.9201 14.9863 34.4658 15.532 34.4658 16.2051V26.6406C34.4658 27.7719 34.0163 28.8569 33.2164 29.6569C32.4164 30.4568 31.3315 30.9062 30.2001 30.9062H4.70312C3.57181 30.9062 2.48683 30.4568 1.68687 29.6569C0.886913 28.8569 0.4375 27.7719 0.4375 26.6406V8.35938C0.4375 7.22806 0.886913 6.14308 1.68687 5.34312Z" fill="black"/>
<path fill-rule="evenodd" clip-rule="evenodd" d="M5.56923 9.43926C5.98247 8.90795 6.74818 8.81224 7.27949 9.22548L17.5111 17.1834L23.3927 12.7438C23.9299 12.3383 24.6942 12.4451 25.0997 12.9823C25.5052 13.5195 25.3984 14.2838 24.8612 14.6893L18.2343 19.6915C17.7945 20.0234 17.1867 20.019 16.7518 19.6808L5.78301 11.1495C5.2517 10.7363 5.15599 9.97057 5.56923 9.43926Z" fill="black"/>
<path d="M36.875 5.9375H29" stroke="black" stroke-width="2.5" stroke-linecap="round" stroke-linejoin="round"/>
<path d="M32.9375 9.875V2" stroke="black" stroke-width="2.5" stroke-linecap="round" stroke-linejoin="round"/>
</svg>