<?xml version="1.0" encoding="UTF-8" standalone="no"?>
<!-- Created with Inkscape (http://www.inkscape.org/) -->

<svg
   width="29.495239mm"
   height="23.595673mm"
   viewBox="0 0 29.49524 23.595673"
   version="1.1"
   id="svg1"
   xml:space="preserve"
   xmlns="http://www.w3.org/2000/svg"
   xmlns:svg="http://www.w3.org/2000/svg"><defs
     id="defs1"><clipPath
       clipPathUnits="userSpaceOnUse"
       id="clipath_lpe_path-effect137"><ellipse
         style="display:none;fill:#ffffff;fill-opacity:1;stroke:#000000;stroke-width:0;-inkscape-stroke:none"
         id="ellipse137"
         cx="112.59221"
         cy="98.99968"
         rx="27.582447"
         ry="27.000326" /><path
         id="lpe_path-effect137"
         style="fill:#ffffff;fill-opacity:1;stroke:#000000;stroke-width:0;-inkscape-stroke:none"
         class="powerclip"
         d="M -0.50366,12.9994 H 144.5 V 131 H -0.50366 Z M 140.17466,98.99968 A 27.582447,27.000326 0 0 0 112.59221,71.999353 27.582447,27.000326 0 0 0 85.009762,98.99968 27.582447,27.000326 0 0 0 112.59221,126.00001 27.582447,27.000326 0 0 0 140.17466,98.99968 Z" /></clipPath></defs><g
     id="layer1"
     transform="translate(5269.7909,4761.573)"><g
       id="g8"
       transform="matrix(0.26370526,0,0,0.26370526,-202.76926,-352.91375)"><g
         id="g152"><g
           style="fill:none"
           id="g122"
           transform="matrix(0.82848987,0,0,0.82848987,-19218.441,-16733.044)"
           clip-path="url(#clipath_lpe_path-effect137)"><g
             id="g12985"><g
               id="g14262"><g
                 id="g14265"><g
                   id="g15288"><path
                     fill-rule="evenodd"
                     clip-rule="evenodd"
                     d="m 112.5,72 c 14.902,0 27,12.0996 27,27 0,14.9 -12.1,27 -27,27 -14.9004,0 -27.0001,-12.1 -27.0001,-27 0,-14.9004 12.0997,-27 27.0001,-27 z m -12.184,30.184 6.75,6.75 c 1.755,1.76 4.607,1.76 6.362,0 l 11.25,-11.2504 c 1.755,-1.755 1.755,-4.6069 0,-6.3619 -1.755,-1.755 -4.607,-1.755 -6.362,0 l -8.066,8.0663 -3.566,-3.5663 c -1.755,-1.755 -4.607,-1.755 -6.362,0 -1.7551,1.755 -1.7551,4.6073 0,6.3623 z M 81.3155,103.5 c -0.2137,-1.468 -0.3206,-2.97 -0.3206,-4.5001 0,-7.8075 2.8463,-14.952 7.5544,-20.4576 l -12.3576,-9.8044 -6.3394,4.8769 c -4.0387,3.1107 -9.675,3.1107 -13.7136,0 L 49.7994,68.7379 9.63655,100.598 c 2.37375,1.873 5.31565,2.902 8.35875,2.902 z M 46.1207,65.9135 4.49634,33.8963 v 56.1036 c 0,2.5931 0.7425,5.1019 2.115,7.2563 z m 75.3753,2.8913 V 33.8967 L 79.8719,65.914 91.735,75.3246 c 5.5463,-4.8713 12.814,-7.8187 20.762,-7.8187 3.128,0 6.154,0.4612 9,1.305 z M 4.83954,28.4788 58.8839,70.0468 c 2.4244,1.8674 5.7994,1.8674 8.2238,0 l 54.0443,-41.568 c -0.562,-2.4526 -1.806,-4.7194 -3.611,-6.525 -2.531,-2.5313 -5.963,-3.9544 -9.546,-3.9544 H 17.9951 c -3.583,0 -7.0143,1.4231 -9.5456,3.9544 -1.81128,1.8056 -3.04872,4.0725 -3.61128,6.525 z"
                     fill="#fe990d"
                     id="path103" /></g></g></g></g></g><g
           style="fill:none"
           id="g151"
           transform="matrix(1.7833454,0,0,1.7833454,-19154.584,-16680.371)"><path
             d="M 16,28 C 22.6274,28 28,22.6274 28,16 28,9.37258 22.6274,4 16,4 9.37258,4 4,9.37258 4,16 4,22.6274 9.37258,28 16,28 Z"
             stroke="#fe990d"
             stroke-width="2"
             stroke-linecap="round"
             stroke-linejoin="round"
             id="path1-28" /><path
             d="m 16,24 c 0.8284,0 1.5,-0.6716 1.5,-1.5 0,-0.8284 -0.6716,-1.5 -1.5,-1.5 -0.8284,0 -1.5,0.6716 -1.5,1.5 0,0.8284 0.6716,1.5 1.5,1.5 z"
             fill="#fe990d"
             id="path2-93" /><path
             d="m 16,18 v -1 c 0.6922,0 1.3689,-0.2053 1.9445,-0.5899 0.5756,-0.3845 1.0242,-0.9312 1.2891,-1.5707 0.2649,-0.6395 0.3342,-1.3433 0.1991,-2.0222 -0.135,-0.6789 -0.4683,-1.3026 -0.9578,-1.7921 -0.4895,-0.4895 -1.1132,-0.8228 -1.7921,-0.9578 -0.6789,-0.1351 -1.3827,-0.0658 -2.0222,0.1991 -0.6395,0.2649 -1.1862,0.7135 -1.5707,1.2891 C 12.7053,12.1311 12.5,12.8078 12.5,13.5"
             stroke="#fe990d"
             stroke-width="2"
             stroke-linecap="round"
             stroke-linejoin="round"
             id="path3-68" /></g></g></g></g><style
     type="text/css"
     id="style1">
	.st0{fill:url(#SVGID_1_);}
	.st1{fill:#010101;}
	.st2{fill:#EC8623;}
	.st3{fill:#FFFFFF;}
	.st4{fill:url(#SVGID_2_);}
	.st5{fill:url(#SVGID_3_);}
	.st6{fill:url(#SVGID_4_);}
	.st7{fill:url(#SVGID_5_);}
	.st8{fill:#1D1D1B;}
	.st9{fill:url(#SVGID_6_);}
</style></svg>
