<svg width="16" height="16" viewBox="0 0 16 16" fill="none" xmlns="http://www.w3.org/2000/svg">
<path d="M14.0469 7.00021L12.0469 7.00021C11.7817 7.00021 11.5273 7.10557 11.3398 7.2931C11.1522 7.48064 11.0469 7.73499 11.0469 8.00021L11.0469 10.5002C11.0469 10.7654 11.1522 11.0198 11.3398 11.2073C11.5273 11.3949 11.7817 11.5002 12.0469 11.5002H13.0469C13.3121 11.5002 13.5664 11.3949 13.754 11.2073C13.9415 11.0198 14.0469 10.7654 14.0469 10.5002L14.0469 7.00021ZM14.0469 7.00021C14.0469 6.20805 13.8901 5.42373 13.5854 4.6925C13.2808 3.96127 12.8343 3.2976 12.2719 2.73979C11.7094 2.18198 11.0421 1.74107 10.3083 1.4425C9.5746 1.14393 8.789 0.993607 7.99687 1.00021C7.20527 0.994436 6.42035 1.14537 5.68734 1.44431C4.95433 1.74326 4.28772 2.1843 3.72592 2.74202C3.16413 3.29975 2.71826 3.96314 2.414 4.69396C2.10974 5.42478 1.9531 6.20858 1.95313 7.00021M1.95313 7.00021L1.95313 10.5002C1.95313 10.7654 2.05848 11.0198 2.24602 11.2073C2.43355 11.3949 2.68791 11.5002 2.95313 11.5002H3.95313C4.21834 11.5002 4.4727 11.3949 4.66023 11.2073C4.84777 11.0198 4.95313 10.7654 4.95313 10.5002L4.95313 8.00021C4.95313 7.73499 4.84777 7.48064 4.66023 7.2931C4.4727 7.10557 4.21834 7.00021 3.95313 7.00021H1.95313Z" stroke="black" stroke-linecap="round" stroke-linejoin="round"/>
<path d="M10.7969 11.5V13C10.7969 13.5304 10.5862 14.0391 10.2111 14.4142C9.83602 14.7893 9.32731 15 8.79688 15H5.20312" stroke="black" stroke-linecap="round" stroke-linejoin="round"/>
</svg>
