<svg width="97" height="97" viewBox="0 0 97 97" fill="none" stroke="currentColor" xmlns="http://www.w3.org/2000/svg">
<path d="M84.8911 40.4183H73.3643L76.7479 16.7406C76.9942 15.0204 76.1113 13.3304 74.554 12.5537C73.9781 12.2657 73.3604 12.1255 72.7466 12.1255C71.6971 12.1255 70.6627 12.5347 69.8897 13.3077L37.5539 45.6434C36.3982 46.7991 36.0535 48.5382 36.6786 50.0463C37.3038 51.5582 38.7778 52.5396 40.4147 52.5396H51.9221L48.5385 76.2173C48.2922 77.9375 49.1751 79.6275 50.7324 80.4042C51.3084 80.6922 51.926 80.8324 52.5398 80.8324C53.5893 80.8324 54.6237 80.4231 55.3967 79.6502L87.6153 47.4276C88.4186 46.6887 88.9225 45.6315 88.9225 44.457C88.9225 42.2252 87.1227 40.4178 84.891 40.4178L84.8911 40.4183ZM52.54 76.7933L56.5792 48.5H40.4149L72.7466 16.1683L68.7037 44.4616H84.872L52.54 76.7933ZM40.415 78.8128C40.415 79.9306 39.5094 80.8324 38.3955 80.8324H10.1022C8.98442 80.8324 8.08264 79.9268 8.08264 78.8128C8.08264 77.6951 8.98822 76.7933 10.1022 76.7933H38.3955C39.5094 76.7933 40.415 77.6951 40.415 78.8128ZM12.1217 58.6061C12.1217 57.4883 13.0273 56.5866 14.1413 56.5866H30.3095C31.4273 56.5866 32.3291 57.4921 32.3291 58.6061C32.3291 59.7239 31.4235 60.6256 30.3095 60.6256H14.1413C13.0273 60.6256 12.1217 59.7201 12.1217 58.6061ZM20.2038 18.1878C20.2038 17.0701 21.1093 16.1683 22.2233 16.1683H50.5166C51.6344 16.1683 52.5361 17.0739 52.5361 18.1878C52.5361 19.3056 51.6306 20.2074 50.5166 20.2074H22.2273C21.1096 20.2074 20.204 19.3056 20.204 18.1878H20.2038ZM16.1646 38.3945C16.1646 37.2768 17.0702 36.375 18.1841 36.375H34.3524C35.4702 36.375 36.372 37.2806 36.372 38.3945C36.372 39.5123 35.4664 40.4141 34.3524 40.4141H18.1841C17.0664 40.4179 16.1646 39.5123 16.1646 38.3945Z" fill="#FE990D"/>
</svg>
