<svg width="34" height="33" viewBox="0 0 34 33" fill="none" xmlns="http://www.w3.org/2000/svg">
<path fill-rule="evenodd" clip-rule="evenodd" d="M18.2514 5.9989C18.252 5.44661 18.7002 4.99939 19.2525 5L33.0011 5.01517C33.3933 5.0156 33.749 5.24522 33.9108 5.60242C34.0727 5.95962 34.0108 6.37846 33.7526 6.67361L25.7998 15.764L30.611 15.7709C31.0381 15.7715 31.4176 16.0433 31.5558 16.4474C31.6939 16.8515 31.5602 17.2987 31.223 17.5607L11.6151 32.7898C11.207 33.1068 10.6245 33.0606 10.2714 32.6832C10.099 32.4988 10.0457 32.3026 10.0291 32.2347C10.0078 32.1473 10.0027 32.0754 10.001 32.038C9.99762 31.9618 10.0035 31.9003 10.0062 31.8746C10.0124 31.816 10.0224 31.7634 10.0285 31.733C10.0421 31.665 10.0615 31.5853 10.0816 31.5062C10.1232 31.3433 10.1841 31.123 10.2558 30.8712C10.4 30.3648 10.597 29.6995 10.7946 29.0408C10.9925 28.3811 11.1922 27.7238 11.3424 27.2317L11.5932 26.4124C11.7557 25.8846 12.3156 25.5873 12.8434 25.7498C13.3713 25.9122 13.6675 26.4718 13.5051 26.9997L13.2553 27.8154C13.1264 28.2378 12.9611 28.7816 12.7921 29.3433L27.6972 17.7667L23.5976 17.7608C23.2055 17.7602 22.8499 17.5305 22.6881 17.1734C22.5264 16.8162 22.5882 16.3974 22.8464 16.1023L30.7986 7.01274L19.2503 7C18.698 6.99939 18.2508 6.55118 18.2514 5.9989Z" fill="black"/>
<path fill-rule="evenodd" clip-rule="evenodd" d="M10.2301 12.5628C8.79567 12.5628 7.63281 13.7257 7.63281 15.1602C7.63281 16.5946 8.79567 17.7575 10.2301 17.7575C11.6646 17.7575 12.8275 16.5946 12.8275 15.1602C12.8275 13.7257 11.6646 12.5628 10.2301 12.5628ZM5.63281 15.1602C5.63281 12.6211 7.6911 10.5628 10.2301 10.5628C12.7692 10.5628 14.8275 12.6211 14.8275 15.1602C14.8275 17.6992 12.7692 19.7575 10.2301 19.7575C7.6911 19.7575 5.63281 17.6992 5.63281 15.1602Z" fill="black"/>
<path fill-rule="evenodd" clip-rule="evenodd" d="M10.1132 7.00001C5.63913 6.99378 2.00728 10.6143 2.00001 15.0882C1.99274 19.562 5.6141 23.194 10.0883 23.2012C11.8544 23.2044 13.486 22.6431 14.8178 21.687C15.2665 21.365 15.8913 21.4676 16.2133 21.9162C16.5354 22.3649 16.4328 22.9897 15.9841 23.3118C14.3228 24.5043 12.2846 25.2051 10.0849 25.2012C10.0848 25.2012 10.0849 25.2012 10.0849 25.2012C4.50665 25.1921 -0.00904891 20.6637 1.36168e-05 15.085C0.00907591 9.50651 4.53768 4.99224 10.116 5.00001C15.6949 5.00778 20.209 9.53789 20.2012 15.116L20.2012 15.1407L19.2071 15.1148C20.2009 15.1406 20.2012 15.1403 20.2012 15.1407L20.2008 15.1438L20.2007 15.148L20.2003 15.1591L20.1989 15.192C20.1976 15.2186 20.1955 15.2544 20.1922 15.2983C20.1856 15.386 20.1741 15.5069 20.154 15.6516C20.1143 15.9379 20.039 16.3334 19.894 16.7555C19.6154 17.5663 18.9934 18.7014 17.6418 19.078C16.2442 19.4668 15.1012 18.771 14.3454 17.8918C13.5968 17.0211 13.0796 15.8308 12.7935 14.7172C12.6561 14.1823 12.9784 13.6373 13.5133 13.4999C14.0482 13.3624 14.5933 13.6847 14.7307 14.2196C14.9683 15.145 15.3761 16.0228 15.862 16.588C16.3405 17.1446 16.7417 17.2525 17.1054 17.1513C17.5161 17.0367 17.8079 16.6719 18.0025 16.1055C18.0941 15.839 18.1453 15.5765 18.173 15.377C18.1866 15.2789 18.1939 15.1999 18.1978 15.1484C18.1997 15.1234 18.2007 15.1051 18.2012 15.0946C18.1974 10.6288 14.5806 7.00623 10.1132 7.00001Z" fill="black"/>
</svg>