<svg width="69" height="69" viewBox="0 0 69 69" fill="none" stroke="currentColor" xmlns="http://www.w3.org/2000/svg">
<path d="M8.07247 47.955L13.455 42.5725L23.805 52.9225L18.4225 58.305C18.1475 58.5799 18.1475 58.995 18.4225 59.2699C18.5599 59.4074 18.6974 59.4774 18.9049 59.4774C19.1125 59.4774 19.2499 59.4074 19.3874 59.2699L25.2524 53.4049C25.5273 53.13 25.5273 52.7149 25.2524 52.44L24.4249 51.6125L26.0124 50.095C29.9449 50.6476 33.2574 50.9926 36.1548 50.9926C45.1248 50.9926 50.0923 48.3026 56.7174 43.6101C58.1675 42.5751 59.5475 41.47 60.9275 40.2976C61.2725 40.0227 62.17 39.2626 62.1 38.1575C62.0299 37.33 61.5475 36.64 60.72 36.225C59.2025 35.3975 57.615 35.6051 57.27 35.6725C56.6501 35.8099 56.0275 36.0875 55.4075 36.4325L48.2999 40.8475C47.1949 38.4325 44.575 36.915 41.5374 36.915C38.0874 37.1899 35.5349 36.915 33.8099 36.0875C33.4649 35.95 32.5 35.4676 31.2575 35.19C30.43 34.9824 29.2576 34.7749 27.8776 34.845C25.6701 34.9824 23.4626 35.7425 21.6675 37.0525H21.5975L15.5249 42.7099L14.0074 41.1925C13.7325 40.9175 13.3174 40.9175 13.0425 41.1925L7.1775 47.0575C6.90258 47.3324 6.90258 47.7475 7.1775 48.0224C7.38235 48.2299 7.79741 48.2299 8.07232 47.955L8.07247 47.955ZM22.1496 38.295L22.2197 38.2249C23.8072 36.9824 25.8072 36.2924 27.8772 36.1549C28.8421 36.0848 29.8771 36.225 30.9121 36.4298C32.0846 36.7048 32.8446 37.1198 33.3271 37.3274C34.7772 38.0174 36.6396 38.3624 39.1219 38.3624C39.882 38.3624 40.7095 38.2923 41.607 38.2249C43.1245 38.2249 44.5746 38.7074 45.6769 39.6049C46.2968 40.0874 46.8494 40.71 47.127 41.4674C47.2645 41.7423 47.127 42.0199 47.057 42.0873C46.9869 42.1574 46.782 42.3622 46.437 42.3622H35.8122C35.4672 42.3622 35.1222 42.6371 35.1222 43.0522C35.1222 43.3972 35.3971 43.7422 35.8122 43.7422H46.5072C47.1972 43.7422 47.7497 43.3972 48.1621 42.8447C48.2996 42.7072 48.3696 42.4997 48.437 42.3622L56.2346 37.6023C56.6497 37.3274 57.1321 37.1199 57.6146 37.0498C57.7521 37.0498 58.9946 36.8422 60.0997 37.4649C60.3746 37.6023 60.7196 37.9473 60.7897 38.3624C60.7897 38.7775 60.3072 39.2599 60.0997 39.3974C58.7898 40.5699 57.4098 41.6049 56.0298 42.6399C47.4749 48.7124 41.7474 51.2649 25.9446 48.8499C25.7371 48.8499 25.5295 48.8499 25.3921 48.9873L23.4596 50.715L16.4221 43.6776L22.1496 38.295Z" fill="#FE990D"/>
<path d="M37.605 23.5974C37.7425 23.7349 37.95 23.8723 38.1575 23.8723H40.8474L38.4324 32.6348C38.3624 32.9798 38.5025 33.2547 38.7774 33.3949C38.8475 33.4649 38.985 33.4649 39.0524 33.4649C39.2599 33.4649 39.4675 33.3949 39.6049 33.19L49.5398 20.2174C49.6772 20.0099 49.7473 19.735 49.6098 19.5274C49.4724 19.3199 49.2648 19.1824 48.9899 19.1824H45.0574L48.715 10.4873C48.785 10.2798 48.785 10.0722 48.6449 9.86739C48.5074 9.65985 48.2999 9.59247 48.0923 9.59247H41.7449C41.47 9.59247 41.1924 9.80001 41.125 10.0749L37.5375 23.0475C37.4675 23.185 37.5348 23.3898 37.6049 23.5973L37.605 23.5974ZM42.2975 10.9026H47.1275L43.47 19.5276C43.3999 19.7351 43.3999 19.9427 43.5401 20.1475C43.6775 20.355 43.8851 20.4224 44.0926 20.4224H47.6801L40.6398 29.6L42.3648 23.3198C42.4349 23.1123 42.3648 22.9047 42.2273 22.6999C42.0899 22.5625 41.8823 22.425 41.6748 22.425H38.9849L42.2975 10.9026Z" fill="#FE990D"/>
<path d="M33.81 25.875C33.88 26.0825 33.9474 26.2901 34.0849 26.4275C34.7048 27.6701 35.535 28.7051 36.6374 29.6026C36.7748 29.7401 36.9123 29.7401 37.0524 29.7401C37.26 29.7401 37.4675 29.67 37.5349 29.5326C37.7424 29.2576 37.7424 28.8426 37.4648 28.5676C36.5673 27.8076 35.8099 26.8426 35.2573 25.7376C35.1872 25.6001 35.1199 25.4626 35.0498 25.3926C35.0498 25.3225 35.0498 25.3225 34.9797 25.3225C34.4272 24.15 34.1522 22.8374 34.1522 21.4574C34.1522 18.3524 35.6697 15.455 38.2221 13.73C38.4971 13.5224 38.6372 13.11 38.4297 12.765C38.2221 12.4901 37.8098 12.35 37.4648 12.5575C34.5673 14.5574 32.8423 17.87 32.8423 21.3901C32.845 22.9776 33.19 24.425 33.8099 25.8751L33.81 25.875Z" fill="#FE990D"/>
<path d="M51.9576 17.1799C52.3026 17.8699 52.5775 18.4898 52.7177 19.1798C52.9252 19.8698 52.9926 20.6972 52.9926 21.4573C52.9926 26.5622 48.8526 30.7723 43.7477 30.8424C43.4027 30.8424 43.0577 31.1173 43.0577 31.5324C43.0577 31.8774 43.3327 32.2224 43.7477 32.2224C49.6127 32.1523 54.3053 27.3223 54.3053 21.5274C54.3053 20.6299 54.1679 19.7323 53.9603 18.9049C53.8202 18.0774 53.5452 17.3201 53.1301 16.56C52.4401 15.2501 51.4752 14.0749 50.3 13.11C50.0251 12.9025 49.61 12.9025 49.3351 13.2475C49.1276 13.5224 49.1276 13.9375 49.4726 14.2124C50.5076 14.9725 51.3351 16.0075 51.9577 17.1799L51.9576 17.1799Z" fill="#FE990D"/>
</svg>
