<svg width="16" height="16" viewBox="0 0 16 16" fill="none" xmlns="http://www.w3.org/2000/svg">
<g clip-path="url(#clip0_3134_8544)">
<mask id="mask0_3134_8544" style="mask-type:luminance" maskUnits="userSpaceOnUse" x="1" y="1" width="14" height="14">
<path d="M1 1L15 1L15 15L1 15L1 1Z" fill="white"/>
</mask>
<g mask="url(#mask0_3134_8544)">
<path d="M9.07642 11.0715L7.17398 12.9739C6.62414 13.5239 5.87832 13.833 5.10058 13.8332C4.32285 13.8333 3.57691 13.5245 3.02687 12.9747C2.47682 12.4248 2.16773 11.679 2.16758 10.9013C2.16744 10.1236 2.47625 9.37761 3.02609 8.82757L4.92931 6.92279C5.03864 6.81326 5.09998 6.66478 5.09983 6.51002C5.09969 6.35526 5.03807 6.2069 4.92853 6.09757C4.819 5.98824 4.67052 5.9269 4.51576 5.92705C4.361 5.9272 4.21264 5.98881 4.10331 6.09835L2.20164 8.00235C1.43305 8.77136 1.00142 9.81419 1.00171 10.9014C1.002 11.9887 1.43419 13.0313 2.2032 13.7999C2.97221 14.5685 4.01505 15.0001 5.1023 14.9998C6.18955 14.9995 7.23216 14.5674 8.00076 13.7983L9.9032 11.8959C10.0062 11.7853 10.0623 11.6391 10.0597 11.4879C10.057 11.3368 9.99578 11.1926 9.88891 11.0858C9.78203 10.9789 9.63784 10.9177 9.48672 10.915C9.33559 10.9123 9.18934 10.9684 9.07876 11.0715H9.07642ZM13.8006 2.20246C13.421 1.82011 12.9692 1.51694 12.4714 1.31052C11.9737 1.10411 11.4399 0.99857 10.9011 1.00001C10.3628 0.998702 9.82964 1.10409 9.33235 1.31008C8.83507 1.51607 8.38354 1.81858 8.00387 2.20013L6.09909 4.10335C6.04178 4.15675 5.99581 4.22115 5.96393 4.29271C5.93204 4.36426 5.9149 4.44151 5.91352 4.51983C5.91214 4.59815 5.92654 4.67596 5.95588 4.74859C5.98522 4.82123 6.02889 4.88721 6.08428 4.9426C6.13967 4.99799 6.20566 5.04166 6.27829 5.071C6.35093 5.10034 6.42873 5.11475 6.50705 5.11336C6.58537 5.11198 6.66262 5.09484 6.73417 5.06295C6.80573 5.03107 6.87013 4.9851 6.92353 4.92779L8.82831 3.02535C9.381 2.489 10.1225 2.19163 10.8926 2.19747C11.6628 2.20332 12.3997 2.51193 12.9441 3.05661C13.4886 3.60129 13.797 4.33831 13.8025 5.10844C13.8081 5.87857 13.5104 6.61997 12.9739 7.17246L11.0714 9.07568C10.9684 9.18626 10.9123 9.33252 10.915 9.48364C10.9176 9.63477 10.9788 9.77895 11.0857 9.88583C11.1926 9.99271 11.3368 10.0539 11.4879 10.0566C11.639 10.0593 11.7853 10.0032 11.8959 9.90013L13.7999 8.00001C14.5675 7.23082 14.9987 6.18862 14.999 5.10195C14.9993 4.01528 14.5686 2.97284 13.8014 2.20324L13.8006 2.20246Z" fill="black"/>
<path d="M9.3378 5.83722L5.8378 9.33722C5.78211 9.39106 5.7377 9.45545 5.70716 9.52663C5.67662 9.59782 5.66057 9.67437 5.65993 9.75182C5.6593 9.82928 5.67409 9.90608 5.70346 9.97776C5.73282 10.0494 5.77616 10.1145 5.83096 10.1693C5.88576 10.224 5.95091 10.2673 6.02261 10.2966C6.09431 10.3259 6.17113 10.3406 6.24859 10.3399C6.32604 10.3392 6.40258 10.3231 6.47373 10.2925C6.54489 10.2619 6.60923 10.2174 6.66302 10.1617L10.163 6.66167C10.2661 6.55109 10.3222 6.40483 10.3195 6.25371C10.3168 6.10258 10.2556 5.9584 10.1487 5.85152C10.0418 5.74464 9.89766 5.68342 9.74654 5.68075C9.59541 5.67809 9.44838 5.73418 9.3378 5.83722Z" fill="black"/>
</g>
</g>
<defs>
<clipPath id="clip0_3134_8544">
<rect width="14" height="14" fill="white" transform="translate(1 1)"/>
</clipPath>
</defs>
</svg>
