<svg width="24.258mm" height="23.985mm" version="1.1" viewBox="0 0 24.258 23.985" xmlns="http://www.w3.org/2000/svg">
 <defs>
  <linearGradient id="SVGID_1_" x1="44.737" x2="188.7" y1="23.937" y2="207.7" gradientTransform="matrix(1,0,0,-1,0,232.54)" gradientUnits="userSpaceOnUse">
   <stop stop-color="#FEBE13" offset="0"/>
   <stop stop-color="#EF8B22" offset=".5"/>
   <stop stop-color="#F15822" offset="1"/>
  </linearGradient>
 </defs>
 <g transform="translate(5942.9 4928.3)">
  <g transform="matrix(.26371 0 0 .26371 -202.77 -352.91)">
   <path d="m-21677-17289-4.515-3.68c-1.649-1.347-4.085-1.099-5.429 0.551l-1.175 1.441-7.89-6.473c0.294-0.618 0.482-1.296 0.54-2 0.118-1.487-0.337-2.969-1.253-4.067-0.473-0.568-1.054-1.027-1.699-1.358 1.023-1.665 1.192-3.755 0.487-5.226-0.957-1.999-2.532-2.738-3.781-3.058 1.305-1.855 2.519-4.532 0.111-7.425-0.937-1.127-2.19-1.792-3.493-1.968 0.568-1.655 0.452-3.46-0.779-5.004-0.84-1.051-2.174-1.742-3.662-1.894-1.487-0.15-2.896 0.253-3.983 1.13l-6.776-2.244c-1.856-0.613-3.52-0.528-4.951 0.254-1.324 0.726-2.372 2.018-3.129 3.852l-2.181-1.843c-1.088-0.919-2.472-1.359-3.897-1.236-1.425 0.119-2.717 0.784-3.635 1.871-0.917 1.087-1.358 2.47-1.237 3.896 0.04 0.395 0.114 0.779 0.228 1.15-1.275 0.195-2.423 0.831-3.259 1.825-1.366 1.625-1.594 3.834-0.777 5.656-1.052 0.277-1.992 0.866-2.704 1.715-1.683 2.009-1.636 4.914-0.03 6.873-0.855 0.316-1.618 0.847-2.219 1.567-1.432 1.714-1.609 4.083-0.631 5.961l-7.695 6.408c-1.375-1.457-3.658-1.64-5.232-0.356l-4.515 3.68c-1.648 1.344-1.897 3.78-0.551 5.429l18.986 23.288c0.65 0.796 1.573 1.293 2.601 1.397 0.133 0 0.268 0.02 0.401 0.02 0.885 0 1.735-0.302 2.428-0.866l4.515-3.681c1.647-1.344 1.895-3.78 0.552-5.428l-2.389-2.931 12.941-10.362c0.664 0.07 1.316 0.149 1.954 0.227 2.094 0.253 4.138 0.495 6.14 0.423l13.756 11.284-1.106 1.359c-1.344 1.648-1.097 4.084 0.551 5.428l4.515 3.681c0.693 0.565 1.544 0.866 2.429 0.866 0.133 0 0.266 0 0.401-0.02 1.027-0.105 1.951-0.6 2.6-1.398l18.987-23.288c1.34-1.648 1.09-4.083-0.558-5.427zm-46.911-38.574c0.735-0.402 1.629-0.42 2.736-0.05l5.126 1.699-6.067 5.052-3.996-3.375c0.538-1.682 1.291-2.824 2.201-3.322zm-12.053 1.996c0.506-0.597 1.228-0.906 1.956-0.906 0.582 0 1.17 0.198 1.647 0.603l8.941 7.553c0.519 0.438 0.836 1.056 0.893 1.738 0.05 0.683-0.151 1.345-0.59 1.865-0.438 0.518-1.054 0.835-1.737 0.893-0.684 0.05-1.345-0.152-1.863-0.591l-8.943-7.553c-0.517-0.439-0.835-1.055-0.893-1.739-0.05-0.682 0.154-1.344 0.591-1.863zm-4.264 6.871c0.437-0.519 1.052-0.837 1.731-0.894 0.675-0.05 1.34 0.155 1.855 0.591l7.378 6.261c1.077 0.913 1.213 2.537 0.302 3.617-0.434 0.519-1.049 0.836-1.729 0.893-0.686 0.05-1.338-0.153-1.855-0.59l-0.36-0.305-5.422-4.626c-0.109-0.09-0.224-0.179-0.338-0.261l-1.259-1.069c-1.075-0.914-1.212-2.537-0.303-3.617zm-3.477 7.366c0.433-0.519 1.046-0.836 1.722-0.893h0.216c0.52 0 1.016 0.169 1.44 0.467l5.645 4.79 0.432 0.366c1.077 0.92 1.213 2.551 0.304 3.637-0.434 0.519-1.047 0.836-1.723 0.891-0.664 0.05-1.308-0.149-1.817-0.572l-3.092-2.654c-0.07-0.06-0.159-0.124-0.239-0.185l-2.583-2.205c-1.078-0.919-1.215-2.549-0.305-3.635zm-2.241 8.434c0.433-0.517 1.04-0.833 1.715-0.89 0.623-0.05 1.223 0.134 1.714 0.509l3.193 2.724c0.02 0.02 0.04 0.03 0.06 0.04l1.58 1.356c1.077 0.923 1.212 2.562 0.301 3.651-0.432 0.519-1.04 0.833-1.713 0.891-0.671 0.05-1.325-0.155-1.837-0.594l-4.711-4.042c-1.077-0.924-1.213-2.563-0.304-3.651zm6.404 37.335-4.515 3.68c-0.219 0.179-0.501 0.262-0.785 0.232-0.286-0.03-0.543-0.166-0.721-0.386l-18.987-23.287c-0.372-0.458-0.304-1.134 0.154-1.507l4.515-3.681c0.197-0.162 0.437-0.24 0.675-0.24 0.31 0 0.62 0.135 0.831 0.394l0.723 0.887 14.976 18.368 3.281 4.025c0.373 0.456 0.304 1.133-0.153 1.507zm15.154-19.101c-0.834-0.102-1.691-0.204-2.572-0.294-0.363-0.03-0.726 0.07-1.011 0.3l-13.407 10.736-13.25-16.252 7.754-6.456 4.127 3.542c0.968 0.831 2.174 1.275 3.434 1.275 0.149 0 0.3 0 0.449-0.02 1.421-0.118 2.708-0.787 3.625-1.881 1.379-1.652 1.591-3.912 0.731-5.756 1.05-0.277 1.987-0.865 2.699-1.715 1.026-1.225 1.406-2.785 1.183-4.26h0.17c1.424-0.12 2.713-0.785 3.629-1.876 0.912-1.082 1.314-2.427 1.242-3.742 0.169 0 0.335 0.04 0.506 0.04 0.153 0 0.307 0 0.46-0.02 1.426-0.12 2.716-0.784 3.635-1.871 0.917-1.087 1.358-2.471 1.238-3.896-0.05-0.691-0.247-1.348-0.546-1.947l8.499-7.077c0.506-0.419 1.225-0.615 1.972-0.539 0.736 0.07 1.394 0.396 1.765 0.86 1.07 1.341 0.231 3.262-1.151 4.467-0.573 0.502-0.638 1.373-0.143 1.955 0.494 0.58 1.364 0.655 1.952 0.167 1.089-0.908 2.696-0.722 3.651 0.427 1.393 1.673 0.706 2.9-1.076 5.113l-0.12 0.149c-0.613 0.763-0.486 1.431-0.356 1.761 0.358 0.913 1.283 1.048 1.958 1.147 1.211 0.174 2.266 0.427 2.892 1.735 0.371 0.773 0.105 2.774-1.42 3.596-0.578 0.31-0.86 0.984-0.677 1.615 0.184 0.63 0.778 1.052 1.437 1.002 0.855-0.06 1.7 0.294 2.245 0.95 0.453 0.542 0.677 1.292 0.615 2.056-0.06 0.761-0.4 1.448-0.93 1.889l-13.048 10.86c-3.596 2.995-7.377 2.539-12.161 1.961zm9.496 2.61c1.508-0.456 2.99-1.214 4.451-2.43l12.645-10.527 7.914 6.492-13.18 16.169zm36.283-3.27-18.986 23.288c-0.18 0.219-0.436 0.356-0.723 0.386-0.284 0.03-0.566-0.05-0.784-0.232l-4.515-3.68c-0.459-0.374-0.527-1.05-0.155-1.508l18.986-23.288c0.375-0.457 1.05-0.526 1.509-0.153l4.514 3.681c0.457 0.372 0.525 1.048 0.153 1.506zm-45.362-56.157v-6.939c0-0.77 0.623-1.394 1.395-1.394 0.769 0 1.394 0.624 1.394 1.394v6.939c0 0.77-0.624 1.394-1.394 1.394-0.772 0-1.395-0.625-1.395-1.394zm-22.162 0.69c-0.385-0.667-0.156-1.519 0.51-1.904 0.668-0.387 1.519-0.157 1.904 0.509l3.468 6.01c0.385 0.668 0.157 1.52-0.51 1.905-0.218 0.126-0.459 0.187-0.694 0.187-0.482 0-0.95-0.25-1.21-0.698zm-15.891 15.784c0.385-0.666 1.235-0.897 1.904-0.51l6.011 3.47c0.666 0.383 0.894 1.236 0.509 1.903-0.258 0.448-0.726 0.698-1.209 0.698-0.236 0-0.475-0.06-0.694-0.188l-6.011-3.468c-0.665-0.385-0.893-1.239-0.51-1.905zm72.229 1.815c-0.383-0.667-0.154-1.518 0.511-1.904l6.01-3.471c0.667-0.385 1.519-0.156 1.904 0.512 0.384 0.666 0.155 1.518-0.511 1.904l-6.009 3.469c-0.219 0.127-0.459 0.187-0.695 0.187-0.482 0-0.95-0.251-1.208-0.697zm-14.637-14.745 3.469-6.008c0.385-0.667 1.235-0.897 1.904-0.511 0.667 0.385 0.894 1.238 0.511 1.904l-3.469 6.01c-0.259 0.447-0.728 0.697-1.21 0.697-0.235 0-0.475-0.06-0.695-0.187-0.665-0.385-0.895-1.238-0.51-1.905z" fill="#fe990d" stroke-width=".085352"/>
  </g>
 </g>
 <style type="text/css">.st0{fill:url(#SVGID_1_);}
	.st1{fill:#010101;}
	.st2{fill:#EC8623;}
	.st3{fill:#FFFFFF;}
	.st4{fill:url(#SVGID_2_);}
	.st5{fill:url(#SVGID_3_);}
	.st6{fill:url(#SVGID_4_);}
	.st7{fill:url(#SVGID_5_);}
	.st8{fill:#1D1D1B;}
	.st9{fill:url(#SVGID_6_);}</style>
</svg>
