<svg width="32" height="32" viewBox="0 0 32 32" fill="none" xmlns="http://www.w3.org/2000/svg">
<path fill-rule="evenodd" clip-rule="evenodd" d="M15.5369 0.34971C15.8313 0.216763 16.1686 0.216763 16.463 0.34971C22.0562 2.8757 24.567 3.68275 30.7603 4.79369C31.2703 4.88517 31.6518 5.3131 31.6844 5.83018C32.8734 24.6748 17.5803 31.2014 16.4202 31.6686C16.1506 31.7771 15.8494 31.7771 15.5797 31.6686C14.4196 31.2014 -0.873509 24.6748 0.315476 5.83018C0.3481 5.3131 0.729648 4.88517 1.23961 4.79369C7.43289 3.68275 9.9437 2.8757 15.5369 0.34971ZM2.51818 6.84761C1.98772 22.1964 13.4928 28.2631 16 29.4002C18.5072 28.2631 30.0122 22.1964 29.4817 6.84761C23.885 5.80862 21.1779 4.92871 16 2.60861C10.822 4.92871 8.11492 5.80863 2.51818 6.84761Z" fill="black"/>
<path d="M22.3438 11.7812L14.9062 19.2188L11.1875 15.5" stroke="black" stroke-width="2" stroke-linecap="round" stroke-linejoin="round"/>
</svg>