<svg width="78" height="78" viewBox="0 0 78 78" fill="none" stroke="currentColor" xmlns="http://www.w3.org/2000/svg">
<g clip-path="url(#clip0_10764_2031)">
<path d="M16.1726 40.0907L17.0623 38.9999V47.836C17.0623 48.2715 17.2947 48.6737 17.6717 48.8915C18.0488 49.1091 18.5134 49.1091 18.8905 48.8915C19.2675 48.6736 19.4998 48.2715 19.4998 47.836V38.9999L20.3896 40.0724C20.6683 40.4076 21.1046 40.5688 21.5341 40.4952C21.964 40.4216 22.3217 40.1242 22.4726 39.7152C22.6237 39.3061 22.5452 38.8476 22.2664 38.5124L19.2196 34.8562L19.1891 34.8257C19.1441 34.7772 19.0951 34.7323 19.0428 34.6916C18.8313 34.5319 18.5736 34.4456 18.3085 34.4456C18.0435 34.4456 17.7857 34.5319 17.5742 34.6916C17.5219 34.7323 17.4729 34.7772 17.428 34.8257L17.3975 34.8562L14.3506 38.5124C14.1437 38.7612 14.0442 39.0822 14.0739 39.4044C14.1036 39.7266 14.2602 40.0239 14.5091 40.2309C14.7579 40.4378 15.0788 40.5374 15.4011 40.5077C15.7233 40.4779 16.0206 40.3213 16.2275 40.0725L16.1726 40.0907Z" fill="#FE990D"/>
<path d="M38.9999 49.0731C39.3232 49.0731 39.6332 48.9446 39.8617 48.7161C40.0902 48.4875 40.2187 48.1775 40.2187 47.8543V39L41.1084 40.0725C41.3872 40.4076 41.8234 40.5689 42.253 40.4952C42.6829 40.4216 43.0406 40.1243 43.1915 39.7152C43.3426 39.3062 43.2641 38.8476 42.9853 38.5125L39.9384 34.8562L39.908 34.8258C39.863 34.7773 39.814 34.7323 39.7617 34.6917C39.5502 34.532 39.2925 34.4457 39.0274 34.4457C38.7623 34.4457 38.5046 34.532 38.2931 34.6917C38.2408 34.7323 38.1918 34.7773 38.1469 34.8258L38.1164 34.8562L35.0695 38.5125C34.8626 38.7613 34.763 39.0822 34.7928 39.4045C34.8225 39.7267 34.9791 40.024 35.2279 40.231C35.4768 40.4379 35.7977 40.5374 36.1199 40.5077C36.4421 40.478 36.7395 40.3213 36.9464 40.0725L37.7813 39V47.8361C37.7765 48.1624 37.9026 48.4772 38.1317 48.7098C38.3607 48.9423 38.6735 49.0731 39 49.0731L38.9999 49.0731Z" fill="#FE990D"/>
<path d="M67.9705 50.1092L68.8602 49.0367V57.891C68.8602 58.3264 69.0925 58.7286 69.4696 58.9464C69.8466 59.164 70.3112 59.164 70.6883 58.9464C71.0654 58.7286 71.2977 58.3264 71.2977 57.891V49.0367L72.1874 50.1092C72.4662 50.4443 72.9024 50.6055 73.332 50.5319C73.7619 50.4583 74.1196 50.161 74.2705 49.7519C74.4215 49.3429 74.3431 48.8843 74.0643 48.5492L71.0174 44.8929L70.9869 44.8624C70.942 44.8139 70.893 44.769 70.8407 44.7284C70.6292 44.5687 70.3715 44.4823 70.1064 44.4823C69.8413 44.4823 69.5836 44.5687 69.3721 44.7284C69.3198 44.769 69.2708 44.8139 69.2258 44.8624L69.1954 44.8929L66.1485 48.5492C65.9416 48.798 65.842 49.1189 65.8717 49.4411C65.9014 49.7633 66.0581 50.0607 66.3069 50.2676C66.5558 50.4746 66.8767 50.5741 67.1989 50.5444C67.5211 50.5147 67.8184 50.358 68.0254 50.1092L67.9705 50.1092Z" fill="#FE990D"/>
<path d="M5.81348 50.1092L6.7032 49.0367V57.891C6.7032 58.3264 6.93553 58.7286 7.31258 58.9464C7.68963 59.164 8.15426 59.164 8.53133 58.9464C8.90838 58.7286 9.1407 58.3264 9.1407 57.891V49.0367L10.0304 50.1092C10.3092 50.4443 10.7454 50.6055 11.175 50.5319C11.6049 50.4583 11.9626 50.161 12.1135 49.7519C12.2646 49.3429 12.1861 48.8843 11.9073 48.5492L8.86043 44.8929L8.82996 44.8624C8.78502 44.8139 8.73602 44.769 8.68371 44.7284C8.47221 44.5687 8.21449 44.4823 7.94941 44.4823C7.68432 44.4823 7.42661 44.5687 7.2151 44.7284C7.1628 44.769 7.11379 44.8139 7.06885 44.8624L7.03838 44.8929L3.99151 48.5492C3.78457 48.798 3.68504 49.1189 3.71475 49.4411C3.74446 49.7633 3.90112 50.0607 4.14994 50.2676C4.39877 50.4746 4.71971 50.5741 5.04194 50.5444C5.36414 50.5147 5.66147 50.358 5.86841 50.1092L5.81348 50.1092Z" fill="#FE990D"/>
<path d="M26.5324 50.1092L27.4221 49.0367V57.891C27.4221 58.3264 27.6544 58.7286 28.0314 58.9464C28.4085 59.164 28.8731 59.164 29.2502 58.9464C29.6273 58.7286 29.8596 58.3264 29.8596 57.891V49.0367L30.7493 50.1092C31.0281 50.4443 31.4643 50.6055 31.8939 50.5319C32.3237 50.4583 32.6815 50.161 32.8323 49.7519C32.9834 49.3429 32.905 48.8843 32.6262 48.5492L29.5793 44.8929L29.5488 44.8624C29.5039 44.8139 29.4549 44.769 29.4026 44.7284C29.1911 44.5687 28.9334 44.4823 28.6683 44.4823C28.4032 44.4823 28.1455 44.5687 27.934 44.7284C27.8817 44.769 27.8327 44.8139 27.7877 44.8624L27.7573 44.8929L24.7104 48.5492C24.5034 48.798 24.4039 49.1189 24.4336 49.4411C24.4633 49.7633 24.62 50.0607 24.8688 50.2676C25.1176 50.4746 25.4386 50.5741 25.7608 50.5444C26.083 50.5147 26.3803 50.358 26.5873 50.1092L26.5324 50.1092Z" fill="#FE990D"/>
<path d="M50.1208 44.722C49.9093 44.5623 49.6516 44.4759 49.3865 44.4759C49.1215 44.4759 48.8637 44.5622 48.6522 44.722C48.5999 44.7626 48.5509 44.8075 48.506 44.856L48.4755 44.8865L45.4286 48.5427C45.2217 48.7916 45.1222 49.1125 45.1519 49.4347C45.1816 49.7569 45.3382 50.0543 45.5871 50.2612C45.8359 50.4682 46.1568 50.5677 46.4791 50.538C46.8013 50.5083 47.0986 50.3516 47.3055 50.1028L48.1404 49.0364V57.8907C48.1404 58.3261 48.3727 58.7283 48.7498 58.9462C49.1268 59.1638 49.5915 59.1638 49.9685 58.9462C50.3456 58.7283 50.5779 58.3261 50.5779 57.8907V49.0364L51.4676 50.1089C51.7464 50.444 52.1826 50.6053 52.6122 50.5316C53.0421 50.458 53.3998 50.1607 53.5507 49.7516C53.7018 49.3426 53.6233 48.884 53.3445 48.5489L50.2976 44.8926L50.2672 44.8622C50.2225 44.8114 50.1735 44.7647 50.1209 44.722L50.1208 44.722Z" fill="#FE990D"/>
<path d="M57.6101 40.0907L58.4998 38.9999V47.836C58.4998 48.2715 58.7322 48.6737 59.1092 48.8915C59.4863 49.1091 59.9509 49.1091 60.328 48.8915C60.705 48.6736 60.9373 48.2715 60.9373 47.836V38.9999L61.8271 40.0724C62.1058 40.4076 62.5421 40.5688 62.9716 40.4952C63.4015 40.4216 63.7592 40.1242 63.9101 39.7152C64.0612 39.3061 63.9827 38.8476 63.7039 38.5124L60.6571 34.8562L60.6266 34.8257C60.5817 34.7772 60.5326 34.7323 60.4803 34.6916C60.2688 34.5319 60.0111 34.4456 59.746 34.4456C59.481 34.4456 59.2232 34.5319 59.0117 34.6916C58.9594 34.7323 58.9104 34.7772 58.8655 34.8257L58.835 34.8562L55.7881 38.5124C55.5812 38.7612 55.4817 39.0822 55.5114 39.4044C55.5411 39.7266 55.6977 40.0239 55.9466 40.2309C56.1954 40.4378 56.5163 40.5374 56.8386 40.5077C57.1608 40.4779 57.4581 40.3213 57.665 40.0725L57.6101 40.0907Z" fill="#FE990D"/>
<path d="M76.778 59.1097H1.21547C0.892242 59.1097 0.582224 59.2382 0.353697 59.4667C0.125183 59.6952 -0.0032959 60.0052 -0.0032959 60.3285V67.641C-0.0032959 67.9642 0.125183 68.2742 0.353697 68.5027C0.582211 68.7313 0.892235 68.8597 1.21547 68.8597H76.778C77.1012 68.8597 77.4112 68.7313 77.6397 68.5027C77.8682 68.2742 77.9967 67.9642 77.9967 67.641V60.3285C77.9967 60.0052 77.8682 59.6952 77.6397 59.4667C77.4112 59.2382 77.1012 59.1097 76.778 59.1097ZM75.5592 66.4222H2.43422V61.5472H75.5592V66.4222Z" fill="#FE990D"/>
<path d="M32.1997 22.6629L31.1577 28.7566C31.1074 29.0542 31.1694 29.3599 31.3316 29.6143C31.4939 29.869 31.7447 30.0543 32.0357 30.1343C32.3267 30.2146 32.6369 30.1841 32.9066 30.0485L38.3909 27.1661L43.8753 30.0485C44.1452 30.1899 44.458 30.2252 44.7528 30.1475C45.0473 30.0696 45.302 29.8842 45.4668 29.628C45.6313 29.3716 45.694 29.0631 45.6425 28.7627L44.6005 22.669L49.0245 18.3485C49.2423 18.1357 49.3729 17.8488 49.3899 17.5447C49.4069 17.2407 49.3094 16.9411 49.1164 16.7052C48.9237 16.4694 48.6495 16.3142 48.3481 16.2706L42.2544 15.3808L39.5182 9.82945C39.3837 9.55549 39.1511 9.34195 38.8668 9.23125C38.5824 9.12055 38.2665 9.12055 37.9822 9.23125C37.6978 9.34195 37.4652 9.55549 37.3307 9.82945L34.5946 15.3808L28.5008 16.2706C28.1994 16.3142 27.9252 16.4694 27.7325 16.7052C27.5395 16.9411 27.442 17.2407 27.4591 17.5447C27.4761 17.8488 27.6066 18.1358 27.8244 18.3485L32.1997 22.6629ZM35.5452 17.6721C35.9438 17.6145 36.2881 17.3636 36.4653 17.0018L38.391 13.1141L40.3166 17.0202C40.4981 17.3749 40.8419 17.6184 41.2367 17.6722L45.545 18.2816L42.425 21.3284C42.116 21.6105 41.9733 22.0317 42.0472 22.4436L42.7845 26.7397L38.9333 24.7105C38.5786 24.5241 38.1546 24.5241 37.7998 24.7105L33.9486 26.7397L34.7347 22.4436C34.8032 22.0488 34.6735 21.6456 34.3873 21.365L31.2673 18.3181L35.5452 17.6721Z" fill="#FE990D"/>
</g>
<defs>
<clipPath id="clip0_10764_2031">
<rect width="78" height="78" fill="white"/>
</clipPath>
</defs>
</svg>
